<svg id="Layer_1" data-name="Layer 1" xmlns="http://www.w3.org/2000/svg" viewBox="0 0 151.85 128.38"><defs><style>.cls-1{fill:none;stroke:#000;stroke-miterlimit:10}</style></defs><path class="cls-1" d="M157.33 97.47s7.23 30 19.56 49.33 18.55 31.55 18.55 31.55 2.45 6.34-2.66 8.56-29 9.78-63.78-13.11S93.11 121 93.11 121s-2.44-32.67 27.56-43.89S142.78 66.47 149.22 64s11.45-2.55 26.89 4.56 47.56 23.11 62 53.33 0 30.67-22.22 29.56-42.62-10.9-42.62-10.9" transform="translate(-92.56 -62.01)"/><path class="cls-1" d="M188.94 188.23s10.21-2.84-2.94-3c-15-.16-27.56-3-38.11-8.44s-49.56-24-54-56l-.35-8.89" transform="translate(-92.56 -62.01)"/><path class="cls-1" d="M99.66 94.37s-11.4 25.95 10.38 47 49.78 36.09 68.89 36.67c17.45.54 16.85 1.53 16.85 1.53M230.67 109.43s23.41 36-1.69 42.25" transform="translate(-92.56 -62.01)"/></svg>