<svg id="Layer_1" data-name="Layer 1" xmlns="http://www.w3.org/2000/svg" viewBox="0 0 314.04 123.23"><defs><style>.cls-1{fill:none;stroke:#000;stroke-linecap:round;stroke-linejoin:round}</style></defs><path class="cls-1" d="M162.83 162c-3.06 16.75-12.35 17.24-21.89 15.16s-39.33-9.28-45.24-11.62c-3.86-1.53-19.67-1.3-26-2.81-3.89-.92-10.95-4.92-14.8-6-7.46-2.07-22.86-2.45-30.69-4.16s-8.56-16.87 4-20.42S56 113.62 56 113.62s36.81-29.1 57-43 18.23-13.41 21.65-8.68c7.71 10.73 30.01 38.06 30.01 38.06s4.77 6 2.69 9.66" transform="translate(-17.98 -58.39)"/><path class="cls-1" d="M143.39 106.28 297.21 129s-3.55 51.11-7.7 52.09l-137.32-21" transform="translate(-17.98 -58.39)"/><path class="cls-1" d="M152 164.12c.37-2 .61-12.23 0-18.83S136.42 78 136.42 78 147 90 150.15 94.24c2.58 3.45 9.44 14.44 9.44 14.44M212.36 116.48s2.74-5.09 3.46-6.87c1.07-2.65 1.79-7.76 3.28-12.61 3.07-10 7-20.76 7-20.76s3.77 9.09 7.82 17.85c2.61 5.67 5.6 11 6.9 14.26s4.6 13 4.6 13" transform="translate(-17.98 -58.39)"/><path class="cls-1" d="M201.9 114.93a29.28 29.28 0 0 0 4.42-7.16A205.17 205.17 0 0 0 215 83.62c1.39-5.67.87-20.53 10-19.94a19.08 19.08 0 0 1 6 4.18c14.36 14 76.83 22.7 76.83 22.7S321 94.1 326 95.4s7.16 3 3.95 9.14-9 12.92-16.29 19c-2.62 2.17-13.24 15.53-17.28 15.51" transform="translate(-17.98 -58.39)"/></svg>